<svg width="45" height="45" viewBox="0 0 45 45" fill="none" xmlns="http://www.w3.org/2000/svg">
<g opacity="0.7">
<path fill-rule="evenodd" clip-rule="evenodd" d="M42.6054 14.1615C34.1595 29.8664 17.2879 36.2514 1.61793 27.4098C1.09628 27.1154 0.434756 27.2995 0.140345 27.8147C-0.154065 28.3391 0.029961 29.0015 0.55162 29.296C17.3477 38.7815 35.4622 32.0193 44.5154 15.1919C44.7987 14.6675 44.601 14.005 44.0738 13.7197C43.5466 13.4437 42.8888 13.637 42.6054 14.1615Z" fill="white"/>
<path d="M14.8049 20.6742C16.5495 20.6742 17.9639 19.2599 17.9639 17.5153C17.9639 15.7706 16.5495 14.3563 14.8049 14.3563C13.0602 14.3563 11.6459 15.7706 11.6459 17.5153C11.6459 19.2599 13.0602 20.6742 14.8049 20.6742Z" fill="white"/>
<path d="M27.8821 17.3139C29.5926 17.3139 30.9793 15.9273 30.9793 14.2167C30.9793 12.5062 29.5926 11.1195 27.8821 11.1195C26.1715 11.1195 24.7849 12.5062 24.7849 14.2167C24.7849 15.9273 26.1715 17.3139 27.8821 17.3139Z" fill="white"/>
</g>
</svg>
